<svg aria-hidden="true" style="position:absolute;width:0;height:0;overflow:hidden" xmlns="http://www.w3.org/2000/svg">
  <defs>
    <symbol id="icon-gerb" viewBox="0 0 19 32">
      <path fill="#ffd500" style="fill:var(--color1, #ffd500)" d="M9.632.08a4.753 4.753 0 0 0-1.194 3.154c.044 2.656.369 5.309.398 7.96.059 2.476-.683 4.8-1.586 7.069-.301.626-.626 1.239-.951 1.854l-.955-.193a1.593 1.593 0 0 1 .305-3.154l.349.037-.778-6.496A9.941 9.941 0 0 0 .086 2.463v23.061H5.41a8.745 8.745 0 0 0 3.259 5.333c.397.274.731.635.97 1.057a3.2 3.2 0 0 1 .97-1.057 8.753 8.753 0 0 0 3.259-5.333h5.324V2.463c-.416.228-.817.488-1.194.771a9.935 9.935 0 0 0-3.94 7.077l-.778 6.496.349-.037a1.592 1.592 0 0 1 .305 3.154l-.955.193a49.795 49.795 0 0 1-.951-1.854c-.903-2.267-1.645-4.591-1.586-7.069.029-2.659.354-5.309.398-7.96A4.76 4.76 0 0 0 9.646.08zm-7.96 5.707a8.294 8.294 0 0 1 1.926 4.373l.637 5.357a3.193 3.193 0 0 0-1.667 2.053h-.902V5.789zm15.92 0v11.781h-.902a3.192 3.192 0 0 0-1.667-2.053l.637-5.357a8.336 8.336 0 0 1 1.926-4.373zm-7.96 10.77a18.18 18.18 0 0 0 1.747 3.963 3.57 3.57 0 0 0-1.747 1.175 3.594 3.594 0 0 0-1.747-1.176 18.167 18.167 0 0 0 1.747-3.962zm-7.96 2.606h.902a3.196 3.196 0 0 0 2.229 2.27l.765.174a8.724 8.724 0 0 0-.317 2.332H1.669v-4.776zm15.021 0h.902v4.776h-3.582c0-.807-.112-1.59-.317-2.332l.765-.174a3.185 3.185 0 0 0 2.229-2.27zm-9.569 2.81c.966.136 1.71.963 1.71 1.965h-1.99c0-.682.101-1.34.28-1.965zm5.013 0c.179.625.28 1.282.28 1.965h-1.99c0-1.004.744-1.829 1.71-1.965zm-5.111 3.559h1.809v3.351a7.22 7.22 0 0 1-1.809-3.351zm3.402 0h1.809a7.158 7.158 0 0 1-1.809 3.351v-3.351z"/>
    </symbol>
    <symbol id="icon-close" viewBox="0 0 32 32">
      <path d="M32 3.223 28.777 0 16 12.777 3.223 0 0 3.223 12.777 16 0 28.777 3.223 32 16 19.223 28.777 32 32 28.777 19.223 16 32 3.223z"/>
    </symbol>
     <symbol id="icon-close" viewBox="0 0 32 32">
      <path d="M32 3.223 28.777 0 16 12.777 3.223 0 0 3.223 12.777 16 0 28.777 3.223 32 16 19.223 28.777 32 32 28.777 19.223 16 32 3.223z"/>
    </symbol>
  </defs>
</svg>
